<svg width="96" height="96" viewBox="0 0 96 96" fill="none" xmlns="http://www.w3.org/2000/svg">
<path d="M34.4999 72.7495C34.4999 73.9869 33.4866 75.0001 32.2502 75.0001H23.2506C22.0132 75.0001 21 73.9869 21 72.7495V63.7499C21 62.5125 22.0132 61.5002 23.2506 61.5002H32.2502C33.4867 61.5002 34.4999 62.5125 34.4999 63.7499V72.7495Z" stroke="#001F5C" stroke-width="0.96" stroke-linecap="round" stroke-linejoin="round"/>
<path d="M52.4994 72.7495C52.4994 73.9869 51.4861 75.0001 50.2497 75.0001H41.2501C40.0127 75.0001 38.9995 73.9869 38.9995 72.7495V63.7499C38.9995 62.5125 40.0128 61.5002 41.2501 61.5002H50.2497C51.4862 61.5002 52.4994 62.5125 52.4994 63.7499V72.7495Z" stroke="#001F5C" stroke-width="0.96" stroke-linecap="round" stroke-linejoin="round"/>
<path d="M70.4984 72.7495C70.4984 73.9869 69.4852 75.0001 68.2487 75.0001H59.2487C58.0113 75.0001 56.998 73.9869 56.998 72.7495L56.9985 63.7499C56.9985 62.5125 58.0118 61.5002 59.2491 61.5002H68.2487C69.4852 61.5002 70.4984 62.5125 70.4984 63.7499L70.4984 72.7495Z" stroke="#001F5C" stroke-width="0.96" stroke-linecap="round" stroke-linejoin="round"/>
<path d="M34.4999 54.7499C34.4999 55.9873 33.4866 56.9995 32.2502 56.9995H23.2506C22.0132 56.9995 21 55.9872 21 54.7499V45.7503C21 44.5129 22.0132 43.5006 23.2506 43.5006H32.2502C33.4867 43.5006 34.4999 44.5129 34.4999 45.7503V54.7499Z" stroke="#001F5C" stroke-width="0.96" stroke-linecap="round" stroke-linejoin="round"/>
<path d="M52.4994 54.7499C52.4994 55.9873 51.4861 56.9995 50.2497 56.9995H41.2501C40.0127 56.9995 38.9995 55.9872 38.9995 54.7499V45.7503C38.9995 44.5129 40.0128 43.5006 41.2501 43.5006H50.2497C51.4862 43.5006 52.4994 44.5129 52.4994 45.7503V54.7499Z" stroke="#001F5C" stroke-width="0.96" stroke-linecap="round" stroke-linejoin="round"/>
<path d="M64.4262 58.2093C63.2816 58.6811 61.959 58.1344 61.4868 56.9917L58.0417 48.6775C57.5699 47.5353 58.1165 46.2122 59.2593 45.7381L67.5747 42.292C68.717 41.8174 70.0391 42.3668 70.5123 43.5096L73.9574 51.826C74.4292 52.9683 73.8825 54.2904 72.7398 54.7636L64.4262 58.2093Z" stroke="#001F5C" stroke-width="0.96" stroke-linecap="round" stroke-linejoin="round"/>
<path d="M34.4999 36.7506C34.4999 37.988 33.4866 39.0003 32.2502 39.0003H23.2506C22.0132 39.0003 21 37.988 21 36.7506V27.7505C21 26.5131 22.0132 25.5009 23.2506 25.5009H32.2502C33.4867 25.5009 34.4999 26.5132 34.4999 27.7505V36.7506Z" stroke="#001F5C" stroke-width="0.96" stroke-linecap="round" stroke-linejoin="round"/>
<path d="M50.2634 38.9912C49.7907 40.1335 48.4658 40.6829 47.3239 40.2088L39.009 36.7637C37.8662 36.291 37.3168 34.9661 37.7913 33.8242L41.2345 25.5101C41.7091 24.3679 43.0322 23.8179 44.174 24.2925L52.4904 27.7376C53.6327 28.2103 54.1798 29.5353 53.7076 30.6771L50.2634 38.9912Z" stroke="#001F5C" stroke-width="0.96" stroke-linecap="round" stroke-linejoin="round"/>
<path d="M74.3438 28.0213C75.2186 28.8961 75.2186 30.3285 74.3438 31.2032L67.9804 37.5685C67.1061 38.4433 65.6733 38.4433 64.7989 37.5685L58.4351 31.2032C57.5607 30.3284 57.5607 28.896 58.4351 28.0213L64.7989 21.6556C65.6733 20.7813 67.1061 20.7813 67.9804 21.6556L74.3438 28.0213Z" fill="#3164FA"/>
</svg>
