<svg width="569" height="588" viewBox="0 0 569 588" fill="none" xmlns="http://www.w3.org/2000/svg">
<path fill-rule="evenodd" clip-rule="evenodd" d="M226.253 30.0582L200.256 1.58777C245.199 -4.38894 363.784 3.27531 478.581 81.746C480.074 92.584 479.752 103.388 479.752 103.388L488.212 108.114L488.256 108.183L488.272 108.079L488.453 108.193C493.197 116.603 497.991 129.14 501.055 143.89C504.762 161.742 505.818 182.294 501.496 201.949C497.141 221.751 488.874 238.096 480.781 250.05C474.801 258.882 469.098 265.057 465.35 268.438C450.687 268.756 423.386 278.908 415.582 314.11C392.066 328 355.148 341.884 306.385 341.884C259.802 341.884 212.285 327.96 176.565 300.994C140.99 274.137 117.098 234.382 117.098 182.042C117.098 140.406 135.175 107.883 158.102 83.9639C181.103 59.9671 212.548 40.5244 230.783 34.0714L226.253 30.0582ZM199.525 37.9255C86.3659 61.4413 0 166.613 0 293.794C0 454.578 131.509 587.43 293.734 587.43C414.871 587.43 515.706 510.888 568.43 408.48C498.312 425.665 414.596 395.112 414.057 328.325C388.818 341.732 352.474 353.633 306.385 353.633C257.802 353.633 207.834 339.149 169.859 310.481C131.74 281.704 105.729 238.601 105.729 182.042C105.729 136.558 125.563 101.216 150.025 75.6958C164.18 61.068 183.586 47.186 199.525 37.9255ZM512.17 141.425C510.637 134.044 508.676 127.065 506.449 120.721C536.864 144.212 560.549 176.269 558.576 220.934C555.733 285.271 518.127 310.584 494.051 314.803C505.608 294.764 495.977 282.107 492.125 277.888C490.251 275.836 486.383 272.38 479.741 270.223C483.029 266.5 486.574 261.986 490.096 256.785C498.866 243.832 507.842 226.105 512.582 204.553C517.354 182.852 516.136 160.522 512.17 141.425ZM427.694 104.021C418.656 114.861 410.205 120.062 407.793 121.472C355.018 108.546 336.005 77.107 336.005 77.107C385.784 76.7533 430.714 90.3871 463.586 113.451C463.586 113.451 445.792 106.811 427.694 104.021Z" fill="url(#paint0_linear_0_3)"/>
<mask id="mask0_0_3" style="mask-type:alpha" maskUnits="userSpaceOnUse" x="0" y="0" width="569" height="588">
<path fill-rule="evenodd" clip-rule="evenodd" d="M226.253 30.0577L200.257 1.58801C245.2 -4.3887 363.785 3.27556 478.582 81.7462C480.074 92.5842 479.753 103.388 479.753 103.388L488.212 108.114L488.257 108.184L488.273 108.079L488.454 108.193C493.197 116.603 497.992 129.14 501.055 143.89C504.763 161.742 505.819 182.295 501.496 201.949C497.141 221.751 488.875 238.096 480.781 250.05C474.801 258.882 469.098 265.057 465.351 268.438C450.687 268.757 423.387 278.908 415.583 314.11C392.066 328 355.149 341.885 306.385 341.885C259.803 341.885 212.286 327.96 176.566 300.994C140.99 274.137 117.098 234.382 117.098 182.042C117.098 140.406 135.175 107.883 158.102 83.964C181.104 59.9672 212.548 40.5245 230.784 34.0715L226.253 30.0577ZM199.525 37.9259C86.3662 61.4418 0.000488281 166.614 0.000488281 293.794C0.000488281 454.579 131.51 587.43 293.734 587.43C414.872 587.43 515.706 510.888 568.43 408.48C498.313 425.666 414.596 395.112 414.057 328.325C388.818 341.732 352.474 353.633 306.385 353.633C257.803 353.633 207.834 339.149 169.86 310.481C131.741 281.704 105.729 238.601 105.729 182.042C105.729 136.558 125.564 101.216 150.025 75.6959C164.18 61.0683 183.586 47.1864 199.525 37.9259ZM512.171 141.425C510.638 134.045 508.677 127.065 506.45 120.722C536.865 144.212 560.55 176.269 558.576 220.934C555.734 285.271 518.128 310.584 494.051 314.803C505.608 294.764 495.977 282.107 492.125 277.888C490.251 275.836 486.383 272.38 479.741 270.223C483.029 266.5 486.575 261.986 490.096 256.785C498.866 243.832 507.842 226.106 512.582 204.553C517.355 182.852 516.137 160.522 512.171 141.425ZM427.694 104.021C418.657 114.861 410.206 120.062 407.793 121.472C355.018 108.546 336.005 77.1072 336.005 77.1072C385.785 76.7536 430.714 90.3874 463.586 113.451C463.586 113.451 445.792 106.811 427.694 104.021Z" fill="url(#paint1_linear_0_3)"/>
</mask>
<g mask="url(#mask0_0_3)">
<path d="M-281.428 430.477L-96.9309 -2.06236L-5.8806 395.168L143.198 125.051L250.498 331.611L469.531 -106.225" stroke="url(#paint2_linear_0_3)" stroke-width="161.05" stroke-linecap="round" stroke-linejoin="round"/>
</g>
<defs>
<linearGradient id="paint0_linear_0_3" x1="391.9" y1="114" x2="256.611" y2="465.087" gradientUnits="userSpaceOnUse">
<stop stop-color="#4584FF"/>
<stop offset="1" stop-color="#00A3FF" stop-opacity="0.46"/>
</linearGradient>
<linearGradient id="paint1_linear_0_3" x1="391.901" y1="114" x2="256.611" y2="465.087" gradientUnits="userSpaceOnUse">
<stop stop-color="#4776FF"/>
<stop offset="1" stop-color="#00A3FF" stop-opacity="0.46"/>
</linearGradient>
<linearGradient id="paint2_linear_0_3" x1="94.0515" y1="-106.225" x2="94.0515" y2="430.477" gradientUnits="userSpaceOnUse">
<stop stop-color="#AFFCAE"/>
<stop offset="1" stop-color="#00A3FF"/>
</linearGradient>
</defs>
</svg>
