<svg width="96" height="96" viewBox="0 0 96 96" fill="none" xmlns="http://www.w3.org/2000/svg">
<rect x="18.3003" y="27" width="59.4" height="42" rx="3.6" stroke="#001F5C" stroke-width="0.96" stroke-linecap="round" stroke-linejoin="round"/>
<path d="M77.7003 34.8V35.28C77.9654 35.28 78.1803 35.0651 78.1803 34.8H77.7003ZM18.3003 34.8H17.8203C17.8203 35.0651 18.0352 35.28 18.3003 35.28V34.8ZM21.9003 27.48H74.1003V26.52H21.9003V27.48ZM77.2203 30.6V34.8H78.1803V30.6H77.2203ZM77.7003 34.32H18.3003V35.28H77.7003V34.32ZM18.7803 34.8V30.6H17.8203V34.8H18.7803ZM74.1003 27.48C75.8234 27.48 77.2203 28.8769 77.2203 30.6H78.1803C78.1803 28.3467 76.3536 26.52 74.1003 26.52V27.48ZM21.9003 26.52C19.647 26.52 17.8203 28.3467 17.8203 30.6H18.7803C18.7803 28.8769 20.1772 27.48 21.9003 27.48V26.52Z" fill="#001F5C"/>
<circle cx="72.6001" cy="30.9" r="1.5" stroke="#001F5C" stroke-width="0.96" stroke-linecap="round" stroke-linejoin="round"/>
<circle cx="66.6001" cy="30.9" r="1.5" stroke="#001F5C" stroke-width="0.96" stroke-linecap="round" stroke-linejoin="round"/>
<circle cx="60.6001" cy="30.9" r="1.5" stroke="#001F5C" stroke-width="0.96" stroke-linecap="round" stroke-linejoin="round"/>
<path fill-rule="evenodd" clip-rule="evenodd" d="M37.8002 51.3C37.8002 48.4834 35.5168 46.2 32.7002 46.2C32.0375 46.2 31.5002 45.6628 31.5002 45C31.5002 44.3373 32.0375 43.8 32.7002 43.8C36.8423 43.8 40.2002 47.1579 40.2002 51.3C40.2002 55.4422 36.8423 58.8 32.7002 58.8C28.5581 58.8 25.2002 55.4422 25.2002 51.3C25.2002 50.6373 25.7375 50.1 26.4002 50.1C27.0629 50.1 27.6002 50.6373 27.6002 51.3C27.6002 54.1167 29.8835 56.4 32.7002 56.4C35.5168 56.4 37.8002 54.1167 37.8002 51.3Z" fill="#3164FA"/>
<rect x="44.4004" y="50.4" width="25.2" height="2.4" rx="1.2" fill="#3164FA"/>
<rect x="44.4004" y="54.6" width="6" height="2.4" rx="1.2" fill="#3164FA"/>
<rect x="44.4004" y="46.2" width="25.2" height="2.4" rx="1.2" fill="#3164FA"/>
</svg>
