<svg width="97" height="40" viewBox="0 0 97 40" fill="none" xmlns="http://www.w3.org/2000/svg">
<path fill-rule="evenodd" clip-rule="evenodd" d="M15.9203 2.04732L14.0913 0.109093C17.2539 -0.297881 25.5987 0.224003 33.6769 5.56733C33.7819 6.30532 33.7593 7.04098 33.7593 7.04098L34.3546 7.3628L34.358 7.36796L34.3592 7.36042L34.3715 7.36793C34.7054 7.9406 35.0428 8.79435 35.2584 9.79888C35.5193 11.0145 35.5936 12.414 35.2894 13.7523C34.983 15.1007 34.4013 16.2136 33.8317 17.0276C33.4109 17.6291 33.0096 18.0496 32.7459 18.2798C31.714 18.3015 29.7929 18.9927 29.2437 21.3897C27.5889 22.3355 24.991 23.2809 21.5595 23.2809C18.2816 23.2809 14.9378 22.3328 12.4242 20.4966C9.9208 18.6678 8.23953 15.9607 8.23953 12.3967C8.23953 9.56161 9.5116 7.347 11.125 5.71829C12.7436 4.08427 14.9563 2.76035 16.2395 2.32095L15.9203 2.04732ZM30.0959 6.69816C29.4599 7.3905 28.8652 7.72267 28.6955 7.81275C24.9817 6.98714 23.6438 4.97919 23.6438 4.97919C27.1468 4.95661 30.3084 5.82738 32.6216 7.30042C32.6216 7.30042 31.3694 6.87633 30.0959 6.69816Z" fill="white"/>
<path d="M14.0395 2.5836C6.07704 4.18523 0 11.3465 0 20.0063C0 30.9547 9.2542 40.001 20.6698 40.001C29.1942 40.001 36.2899 34.789 40 27.8157C35.0658 28.9859 29.1746 26.9053 29.1369 22.3574C27.3608 23.2704 24.8031 24.0809 21.5595 24.0809C18.1408 24.0809 14.6246 23.0947 11.9523 21.1426C9.26993 19.1831 7.43953 16.248 7.43953 12.3967C7.43953 9.29957 8.83524 6.89303 10.5566 5.15529C11.5525 4.15935 12.918 3.21418 14.0395 2.5836Z" fill="white"/>
<path d="M36.0406 9.631C35.9327 9.12836 35.7947 8.65301 35.6379 8.22099C37.7784 9.82057 39.4453 12.0035 39.3064 15.045C39.1064 19.426 36.4601 21.1497 34.7658 21.4369C35.5791 20.0724 34.9014 19.2105 34.6303 18.9233C34.4984 18.7835 34.2261 18.5481 33.7586 18.4012C33.9899 18.1477 34.2394 17.8404 34.4872 17.4863C35.1044 16.6042 35.736 15.3972 36.0695 13.9296C36.4054 12.4519 36.3197 10.9314 36.0406 9.631Z" fill="white"/>
<path fill-rule="evenodd" clip-rule="evenodd" d="M51.3776 10.6045L44.1997 27.5984H88.9904L96.1682 10.6045H51.3776ZM53.53 25.0714H55.8509L59.9354 15.5299H60.0292L63.8037 25.0714H66.1246L61.3245 13.0683H58.6402L53.53 25.0714ZM67.0206 13.0683V25.0714H69.195V14.8852H71.1877C71.7308 14.8852 72.1743 14.977 72.5181 15.1606C72.8659 15.3404 73.1218 15.5924 73.2859 15.9167C73.4539 16.241 73.5379 16.6161 73.5379 17.042C73.5379 17.4679 73.4539 17.8449 73.2859 18.1731C73.1218 18.5013 72.8678 18.7592 72.524 18.9468C72.1801 19.1343 71.5709 19.2281 71.0317 19.2281L69.9412 21.0157H71.4924C72.4185 21.0157 73.198 20.8457 73.8309 20.5058C74.4639 20.1619 74.9426 19.6911 75.2669 19.0933C75.5912 18.4955 75.7533 17.8117 75.7533 17.042C75.7533 16.2801 75.5912 15.6002 75.2669 15.0024C74.9465 14.4007 74.4717 13.9279 73.8427 13.584C73.2175 13.2402 72.4439 13.0683 71.5217 13.0683H67.0206ZM77.0863 25.0714V13.0683H81.5875C82.5096 13.0683 83.2833 13.2402 83.9084 13.584C84.5375 13.9279 85.0122 14.4007 85.3326 15.0024C85.6569 15.6002 85.8191 16.2801 85.8191 17.042C85.8191 17.8117 85.6569 18.4955 85.3326 19.0933C85.0083 19.6911 84.5297 20.1619 83.8967 20.5058C83.2637 20.8457 82.4842 21.0157 81.5582 21.0157H80.007L81.0975 19.2281C81.6367 19.2281 82.2459 19.1343 82.5897 18.9468C82.9336 18.7592 83.1876 18.5013 83.3517 18.1731C83.5197 17.8449 83.6037 17.4679 83.6037 17.042C83.6037 16.6161 83.5197 16.241 83.3517 15.9167C83.1876 15.5924 82.9316 15.3404 82.5839 15.1606C82.24 14.977 81.7966 14.8852 81.2535 14.8852H79.2607V25.0714H77.0863Z" fill="white"/>
</svg>
