<svg width="97" height="40" viewBox="0 0 97 40" fill="none" xmlns="http://www.w3.org/2000/svg">
<path fill-rule="evenodd" clip-rule="evenodd" d="M15.9203 2.04634L14.0913 0.108116C17.2539 -0.298858 25.5987 0.223027 33.6769 5.56635C33.7819 6.30435 33.7593 7.04 33.7593 7.04L34.3546 7.36183L34.358 7.36698L34.3592 7.35944L34.3715 7.36695C34.7054 7.93963 35.0428 8.79337 35.2584 9.7979C35.5193 11.0135 35.5936 12.413 35.2894 13.7513C34.983 15.0997 34.4013 16.2127 33.8317 17.0266C33.4109 17.6281 33.0096 18.0486 32.7459 18.2788C31.714 18.3005 29.7929 18.9918 29.2437 21.3887C27.5889 22.3345 24.991 23.28 21.5595 23.28C18.2816 23.28 14.9378 22.3318 12.4242 20.4956C9.9208 18.6668 8.23953 15.9598 8.23953 12.3958C8.23953 9.56064 9.5116 7.34602 11.125 5.71731C12.7436 4.08329 14.9563 2.75937 16.2395 2.31997L15.9203 2.04634ZM30.0959 6.69718C29.4599 7.38952 28.8652 7.72169 28.6955 7.81177C24.9817 6.98617 23.6438 4.97822 23.6438 4.97822C27.1468 4.95563 30.3084 5.82641 32.6216 7.29945C32.6216 7.29945 31.3694 6.87535 30.0959 6.69718Z" fill="#3164FA"/>
<path d="M14.0395 2.58262C6.07704 4.18426 0 11.3456 0 20.0054C0 30.9537 9.2542 40 20.6698 40C29.1942 40 36.2899 34.788 40 27.8147C35.0658 28.9849 29.1746 26.9043 29.1369 22.3564C27.3608 23.2694 24.8031 24.08 21.5595 24.08C18.1408 24.08 14.6246 23.0937 11.9523 21.1416C9.26993 19.1821 7.43953 16.2471 7.43953 12.3958C7.43953 9.29859 8.83524 6.89205 10.5566 5.15431C11.5525 4.15837 12.918 3.2132 14.0395 2.58262Z" fill="#3164FA"/>
<path d="M36.0406 9.63002C35.9327 9.12738 35.7947 8.65203 35.6379 8.22001C37.7784 9.8196 39.4453 12.0025 39.3064 15.0441C39.1064 19.425 36.4601 21.1487 34.7658 21.436C35.5791 20.0714 34.9014 19.2096 34.6303 18.9223C34.4984 18.7825 34.2261 18.5471 33.7586 18.4003C33.9899 18.1468 34.2394 17.8394 34.4872 17.4853C35.1044 16.6033 35.736 15.3962 36.0695 13.9286C36.4054 12.4509 36.3197 10.9304 36.0406 9.63002Z" fill="#3164FA"/>
<path fill-rule="evenodd" clip-rule="evenodd" d="M51.3771 10.6035L44.1992 27.5974H88.9899L96.1677 10.6035H51.3771ZM53.5295 25.0704H55.8504L59.9349 15.5289H60.0287L63.8032 25.0704H66.1241L61.324 13.0673H58.6397L53.5295 25.0704ZM67.0201 13.0673V25.0704H69.1945V14.8842H71.1872C71.7303 14.8842 72.1738 14.976 72.5176 15.1597C72.8654 15.3394 73.1213 15.5914 73.2854 15.9157C73.4534 16.24 73.5374 16.6151 73.5374 17.041C73.5374 17.4669 73.4534 17.844 73.2854 18.1722C73.1213 18.5004 72.8673 18.7583 72.5235 18.9458C72.1796 19.1334 71.5704 19.2271 71.0312 19.2271L69.9407 21.0147H71.492C72.418 21.0147 73.1975 20.8447 73.8305 20.5048C74.4634 20.161 74.9421 19.6901 75.2664 19.0923C75.5907 18.4945 75.7528 17.8107 75.7528 17.041C75.7528 16.2791 75.5907 15.5992 75.2664 15.0014C74.946 14.3997 74.4713 13.9269 73.8422 13.5831C73.217 13.2392 72.4434 13.0673 71.5213 13.0673H67.0201ZM77.0859 25.0704V13.0673H81.587C82.5092 13.0673 83.2828 13.2392 83.908 13.5831C84.537 13.9269 85.0118 14.3997 85.3322 15.0014C85.6565 15.5992 85.8186 16.2791 85.8186 17.041C85.8186 17.8107 85.6565 18.4945 85.3322 19.0923C85.0079 19.6901 84.5292 20.161 83.8962 20.5048C83.2633 20.8447 82.4838 21.0147 81.5577 21.0147H80.0065L81.097 19.2271C81.6362 19.2271 82.2454 19.1334 82.5893 18.9458C82.9331 18.7583 83.1871 18.5004 83.3512 18.1722C83.5192 17.844 83.6032 17.4669 83.6032 17.041C83.6032 16.6151 83.5192 16.24 83.3512 15.9157C83.1871 15.5914 82.9311 15.3394 82.5834 15.1597C82.2396 14.976 81.7961 14.8842 81.253 14.8842H79.2603V25.0704H77.0859Z" fill="#3164FA"/>
</svg>
