<svg width="553" height="554" viewBox="0 0 553 554" fill="none" xmlns="http://www.w3.org/2000/svg">
<path d="M281.926 286.677C336.895 286.92 387.912 291.214 430.404 298.415M463.273 304.956C517.074 317.453 550.735 335.297 550.735 355.106C550.735 392.904 428.18 423.545 277 423.545C125.82 423.545 3.26489 392.904 3.26489 355.106C3.26489 333.81 42.1693 314.785 103.178 302.233C105.087 301.84 107.017 301.454 108.969 301.074M229.995 287.695C224.067 287.944 218.838 288.197 212.964 288.55L202.345 289.442" stroke="#001F5C" stroke-width="2.4885"/>
<path d="M314.672 342.965C302.434 342.436 289.847 342.161 277 342.161C156.483 342.161 58.785 366.391 58.785 396.28C58.785 426.169 156.483 450.399 277 450.399C397.516 450.399 495.214 426.169 495.214 396.28C495.214 383.414 477.112 371.597 446.88 362.31" stroke="#001F5C" stroke-width="2.4885"/>
<path d="M372.958 344.899C386.073 346.494 398.447 348.406 409.919 350.594" stroke="#001F5C" stroke-width="2.4885"/>
<path d="M420.581 427.672C432.827 433.399 439.772 439.944 439.772 446.896C439.772 469.415 366.897 487.671 277 487.671C187.103 487.671 114.227 469.415 114.227 446.896C114.227 424.377 187.103 406.122 277 406.122C294.353 406.122 311.072 406.802 326.756 408.062" stroke="#001F5C" stroke-width="2.4885"/>
<ellipse cx="277" cy="486.929" rx="105.909" ry="25.9474" stroke="#001F5C" stroke-width="2.4885"/>
<ellipse cx="277" cy="515.101" rx="64.6825" ry="15.5685" stroke="#001F5C" stroke-width="2.4885"/>
<ellipse cx="277" cy="534.376" rx="37.6722" ry="9.63762" stroke="#001F5C" stroke-width="2.4885"/>
<ellipse cx="277" cy="543.272" rx="17.7699" ry="5.18949" stroke="#001F5C" stroke-width="2.4885"/>
<path d="M287.369 547.975C287.369 549.613 282.889 552.118 277 552.118C271.112 552.118 266.631 549.613 266.631 547.975" stroke="#001F5C" stroke-width="2.4885"/>
<path d="M444.57 272.492C444.756 272.454 444.947 272.468 445.124 272.531L464.756 279.417L464.756 279.417C465.115 279.543 465.376 279.858 465.439 280.241L465.441 280.241L468.874 301.009C469.005 301.435 468.864 301.903 468.52 302.188L452.302 315.954L452.302 315.954C452.013 316.201 451.62 316.276 451.27 316.152L431.639 309.267L431.639 309.267C431.202 309.124 430.911 308.706 430.921 308.234L427.498 287.524C427.434 287.141 427.578 286.748 427.874 286.496L444.091 272.729L444.092 272.73C444.23 272.61 444.395 272.529 444.57 272.492L444.57 272.492ZM444.964 274.781L430.665 286.916L447.974 292.992L462.271 280.85L444.964 274.781ZM463.652 282.467L449.318 294.635L452.372 313.111L466.706 300.941L463.652 282.467ZM429.886 288.948L432.94 307.422L450.283 313.508L447.228 295.028L429.886 288.948Z" fill="#001F5C"/>
<path d="M60.5738 254.544C60.7156 254.419 60.888 254.335 61.0726 254.301L81.5135 250.417L81.5132 250.417C81.887 250.346 82.2712 250.488 82.5189 250.788L82.5203 250.787L95.9248 267.03C96.2513 267.333 96.3648 267.809 96.2102 268.227L89.0989 288.263L89.0992 288.263C88.9726 288.622 88.6713 288.883 88.3059 288.952L67.8659 292.834L67.8656 292.835C67.4159 292.93 66.9547 292.714 66.726 292.301L53.3592 276.103C53.1118 275.804 53.0387 275.391 53.1686 275.025L60.279 254.99L60.2796 254.99C60.3392 254.817 60.4405 254.664 60.5741 254.545L60.5738 254.544ZM62.0642 256.327L55.7938 273.99L73.8179 270.57L80.0843 252.902L62.0642 256.327ZM82.0908 253.609L75.8061 271.318L87.7315 285.769L94.0146 268.058L82.0908 253.609ZM56.141 276.138L68.0648 290.587L86.1232 287.159L74.1963 272.706L56.141 276.138Z" fill="#001F5C"/>
<path d="M391.415 172.792C391.576 172.893 391.705 173.035 391.789 173.202L401.25 191.712L401.249 191.711C401.422 192.05 401.394 192.458 401.175 192.779L401.176 192.78L389.321 210.184C389.121 210.581 388.696 210.823 388.25 210.793L367 209.589L367 209.589C366.62 209.569 366.284 209.353 366.116 209.022L356.656 190.513L356.656 190.513C356.439 190.109 356.517 189.606 356.85 189.271L368.672 171.917C368.891 171.596 369.267 171.41 369.655 171.432L390.905 172.635L390.905 172.635C391.087 172.644 391.262 172.698 391.415 172.793L391.415 172.792ZM390.119 174.721L371.385 173.659L379.723 189.981L398.461 191.038L390.119 174.721ZM398.344 193.16L379.562 192.096L369.014 207.579L387.797 208.64L398.344 193.16ZM369.419 174.593L358.872 190.074L367.228 206.427L377.777 190.942L369.419 174.593Z" fill="#001F5C"/>
<path d="M148.578 386.055C148.589 386.251 148.654 386.438 148.764 386.598L160.853 404.389L160.853 404.388C161.074 404.714 161.459 404.891 161.86 404.853L161.86 404.855L183.567 402.791C184.028 402.808 184.46 402.544 184.654 402.125L194.15 382.281L194.15 382.282C194.321 381.927 194.292 381.515 194.076 381.198L181.986 363.409L181.986 363.408C181.728 363.01 181.232 362.83 180.762 362.964L159.116 365.023C158.715 365.061 158.36 365.309 158.186 365.672L148.689 385.514L148.689 385.514C148.607 385.684 148.569 385.87 148.578 386.055L148.578 386.055ZM150.974 385.842L159.345 368.348L170.009 384.032L161.631 401.527L150.974 385.842ZM163.616 402.478L172.01 384.94L191.322 383.104L182.925 400.642L163.616 402.478ZM161.174 367.033L180.483 365.197L191.166 380.912L171.851 382.748L161.174 367.033Z" fill="#001F5C"/>
<ellipse rx="61.1129" ry="73.8495" transform="matrix(0.956594 0.291933 -0.292513 0.956105 384.283 373.869)" stroke="#001F5C" stroke-width="2.4885"/>
<ellipse rx="23.4503" ry="45.4458" transform="matrix(0.956594 0.291933 -0.292513 0.956105 383.603 373.662)" stroke="#001F5C" stroke-width="2.4885"/>
<path fill-rule="evenodd" clip-rule="evenodd" d="M118.953 327.998C117.701 328.564 116.226 328.009 115.658 326.757L106.591 306.747C106.396 306.316 106.327 305.84 106.393 305.372L120.768 203.641C120.888 202.798 121.43 202.075 122.206 201.724L154.025 187.341C155.277 186.775 156.752 187.331 157.319 188.583L191.951 265.007L204.595 259.292C205.847 258.726 207.322 259.282 207.889 260.534L217.117 280.896C217.684 282.148 217.128 283.621 215.876 284.187L203.232 289.903L211.778 308.761C212.345 310.013 211.79 311.487 210.538 312.053L186.233 323.039C184.981 323.605 183.506 323.049 182.939 321.797L174.393 302.938L118.953 327.998ZM175.634 299.647L185.206 320.772L209.51 309.786L199.938 288.661L214.849 281.921L205.622 261.559L190.711 268.299L155.052 189.608L123.233 203.99L108.858 305.722L117.926 325.732L175.634 299.647ZM143.768 228.079L142.829 228.503L133.869 292.861L134.294 293.8L166.876 279.072L143.768 228.079ZM144.376 235.448L136.789 289.941L163.581 277.831L144.376 235.448Z" fill="#001F5C"/>
<path fill-rule="evenodd" clip-rule="evenodd" d="M217.101 490.749C215.751 490.491 214.866 489.187 215.125 487.838L218.026 472.697C218.115 472.233 218.334 471.804 218.658 471.46L268.087 418.908C268.67 418.288 269.531 418.009 270.368 418.168L294.435 422.769C295.785 423.027 296.67 424.331 296.411 425.681L285.469 482.779L294.304 484.468C295.654 484.726 296.538 486.03 296.28 487.379L293.327 502.787C293.068 504.137 291.764 505.022 290.414 504.764L281.579 503.075L278.985 516.615C278.726 517.965 277.422 518.85 276.072 518.592L257.688 515.078C256.338 514.82 255.453 513.516 255.712 512.167L258.307 498.626L217.101 490.749ZM261.22 496.649L258.156 512.634L276.54 516.148L279.604 500.163L290.883 502.32L293.835 486.912L282.556 484.756L293.967 425.213L269.899 420.612L220.471 473.164L217.569 488.305L261.22 496.649ZM271.922 442.725L271.212 442.589L240.019 475.888L239.882 476.598L264.528 481.31L271.922 442.725ZM268.075 449.576L244.338 474.917L262.552 478.398L268.075 449.576Z" fill="url(#paint0_linear_2936_4992)"/>
<path fill-rule="evenodd" clip-rule="evenodd" d="M226.33 259.233L223.69 239.958V165.822L178.909 152.478L172.512 142.84L166.223 107.059C163.893 111.111 162.561 115.81 162.561 120.819V231.583C162.561 246.854 174.94 259.233 190.211 259.233H226.33ZM241.928 115.41C238.122 110.464 235.079 104.942 232.927 99.0256L230.798 93.1693H206.631L213.739 115.41H241.928Z" fill="#3164FA"/>
<path d="M372.957 115.41L339.549 105.031L346.657 88.7213L343.103 79.8251L342.393 67.9634V64.2566L346.657 62.7739L351.633 67.9634L357.319 49.4295L362.295 46.4641H367.981L377.932 52.3949L380.065 58.3258L372.957 115.41Z" fill="#3164FA"/>
<path d="M318.936 211.045H223.689V199.924H255.675V128.013C259.94 129.99 270.602 134.685 279.132 134.685C287.661 134.685 295.954 132.214 299.034 130.237V199.924H318.936V211.045Z" fill="#3164FA"/>
<ellipse cx="308.986" cy="143.582" rx="4.26478" ry="4.44813" fill="#3164FA"/>
<ellipse cx="308.986" cy="157.667" rx="4.26478" ry="4.44813" fill="#3164FA"/>
<path d="M199.523 73.8943L166.826 101.324L155.453 35.3438L154.743 30.1543L160.429 20.5167L168.248 8.65501H173.934L180.331 26.4475L184.596 34.6024L190.993 30.1543H193.126L196.68 31.637L197.39 34.6024L190.993 47.2055L199.523 73.8943Z" fill="#3164FA"/>
<path opacity="0.9" d="M281.975 315.7L235.062 329.087L243.465 381.417L247.857 417.927H281.975V366.205V315.7Z" fill="url(#paint1_linear_2936_4992)"/>
<path d="M363.717 288.146L317.516 275.543L304.721 340.782L344.526 357.833L349.501 358.575L353.055 354.126L347.369 328.92L363.717 288.146Z" fill="#3164FA"/>
<path d="M241.46 116.151H214.45L190.993 47.9467C193.179 43.3872 194.525 40.5803 196.5 36.4591C197.071 35.2692 197.151 33.9027 196.723 32.6543V32.6543C195.455 28.9492 190.626 28.0502 188.109 31.0505L183.885 36.085L175.245 9.05068C174.191 5.75267 169.729 5.26055 167.982 8.24957L155.47 29.6521C155 30.4558 154.825 31.3983 154.975 32.317L173.638 146.325C174.254 150.091 176.96 153.178 180.613 154.282L223.69 167.305V240.699L254.254 472.743L292.358 494.573C295.865 496.583 299.799 492.715 297.85 489.174L282.686 461.623V247.371L318.18 263.436C319.455 264.013 320.161 265.395 319.883 266.766L304.721 341.523L348.43 359.885C351.486 361.169 354.687 358.392 353.849 355.186L347.369 330.403L373.436 260.854C376.064 253.84 373.476 245.941 367.205 241.844L318.937 210.304V160.633L362.92 148.357C366.839 147.263 369.705 143.902 370.167 139.859L379.647 56.805C379.903 54.5551 378.872 52.3523 376.979 51.1093L367.426 44.8357C364.123 42.667 359.662 44.2268 358.431 47.981L351.633 68.7047L349.518 65.1198C347.863 62.3141 343.846 62.1975 342.031 64.9024V64.9024C341.354 65.9101 341.121 67.1512 341.386 68.3355L345.947 88.7213L334.574 116.151H318.937" stroke="url(#paint2_linear_2936_4992)" stroke-width="2.4885"/>
<ellipse cx="279.843" cy="85.7558" rx="49.045" ry="48.9294" stroke="#001F5C" stroke-width="2.4885"/>
<path fill-rule="evenodd" clip-rule="evenodd" d="M264.917 90.204C272.768 90.204 279.133 83.5656 279.133 75.3768C279.133 73.4521 278.781 71.613 278.141 69.9256C280.537 69.6106 283.006 69.446 285.53 69.446C307.906 69.446 326.045 82.3907 326.045 98.3589C326.045 114.327 307.906 127.272 285.53 127.272C263.154 127.272 245.014 114.327 245.014 98.3589C245.014 92.2639 247.657 86.6095 252.169 81.9472C254.492 86.8399 259.328 90.204 264.917 90.204Z" fill="#001F5C"/>
<defs>
<linearGradient id="paint0_linear_2936_4992" x1="262.133" y1="432.153" x2="269.45" y2="516.542" gradientUnits="userSpaceOnUse">
<stop stop-color="#001F5C"/>
<stop offset="1" stop-color="#001F5C" stop-opacity="0"/>
</linearGradient>
<linearGradient id="paint1_linear_2936_4992" x1="258.519" y1="327.261" x2="264.08" y2="406.491" gradientUnits="userSpaceOnUse">
<stop stop-color="#3164FA"/>
<stop offset="1" stop-color="#3164FA" stop-opacity="0"/>
</linearGradient>
<linearGradient id="paint2_linear_2936_4992" x1="267.759" y1="349.678" x2="267.759" y2="420.848" gradientUnits="userSpaceOnUse">
<stop offset="5.7364e-09" stop-color="#001F5C"/>
<stop offset="1" stop-color="#001F5C" stop-opacity="0"/>
</linearGradient>
</defs>
</svg>
