<svg width="96" height="96" viewBox="0 0 96 96" fill="none" xmlns="http://www.w3.org/2000/svg">
<path d="M25.5889 62.6765C37.3897 59.7865 45.3573 67.1922 47.8659 71.7078V35.8838C41.8451 22.8788 30.5059 23.4407 25.5889 25.3473V62.6765Z" stroke="#001F5C" stroke-width="0.963333" stroke-linecap="round" stroke-linejoin="round"/>
<path d="M47.8657 35.8838C52.7827 31.9703 65.2659 25.8893 75.8626 32.8734C75.8626 41.3026 75.8626 60.8703 75.8626 69.6006C72.8522 66.5901 63.3393 62.6164 48.1668 72.0089" stroke="#001F5C" stroke-width="0.963333" stroke-linecap="round" stroke-linejoin="round"/>
<path d="M47.2637 72.009C42.748 68.1958 31.4891 62.797 20.1699 69.2995C20.1699 60.8704 20.1699 41.3027 20.1699 32.5725C21.073 31.9704 23.4212 30.706 25.5887 30.4652" stroke="#001F5C" stroke-width="0.963333" stroke-linecap="round" stroke-linejoin="round"/>
<path d="M19.8691 35.2819L16.5576 36.185V72.0089H47.5649" stroke="#001F5C" stroke-width="0.963333" stroke-linecap="round" stroke-linejoin="round"/>
<path d="M45.7588 72.009H79.7765V35.884C79.2748 35.4826 77.8498 34.6798 76.164 34.6798" stroke="#001F5C" stroke-width="0.963333" stroke-linecap="round" stroke-linejoin="round"/>
<path d="M57.0975 41.4839L57.0973 29.4792C60.948 27.4483 65.5436 27.2462 69.5455 28.96L69.5455 41.508C69.5455 42.0033 68.9807 42.2868 68.5836 41.9907L63.2188 37.9913L58.0671 41.9608C57.6712 42.2658 57.0975 41.9836 57.0975 41.4839Z" fill="#3164FA"/>
</svg>
