<svg width="174" height="32" viewBox="0 0 174 32" fill="none" xmlns="http://www.w3.org/2000/svg">
<path fill-rule="evenodd" clip-rule="evenodd" d="M12.6874 1.63718L11.2298 0.0864928C13.7501 -0.239086 20.4003 0.178421 26.838 4.45307C26.9217 5.04347 26.9036 5.63199 26.9036 5.63199L27.378 5.88945L27.3807 5.89352L27.3817 5.88748L27.3913 5.89339C27.6574 6.35153 27.9264 7.0346 28.0982 7.83832C28.3061 8.81081 28.3654 9.93038 28.123 11.001C27.8787 12.0798 27.4152 12.9701 26.9613 13.6213C26.6259 14.1025 26.3061 14.4389 26.0959 14.623C25.2736 14.6404 23.7427 15.1934 23.3051 17.1109C21.9863 17.8676 19.916 18.6239 17.1813 18.6239C14.569 18.6239 11.9043 17.8654 9.9012 16.3964C7.90615 14.9334 6.56631 12.7678 6.56631 9.91657C6.56631 7.64848 7.58005 5.8768 8.86578 4.57383C10.1557 3.26662 11.919 2.20748 12.9417 1.85596L12.6874 1.63718ZM23.9842 5.35773C23.4774 5.9116 23.0035 6.17733 22.8682 6.24939C19.9086 5.58891 18.8424 3.98255 18.8424 3.98255C21.634 3.96449 24.1536 4.66111 25.997 5.83954C25.997 5.83954 24.9991 5.50026 23.9842 5.35773Z" fill="#3164FA"/>
<path d="M11.1884 2.06613C4.84291 3.34746 0 9.07647 0 16.0043C0 24.7629 7.37489 32 16.4723 32C23.2655 32 28.9202 27.8304 31.8769 22.2517C27.9447 23.1879 23.2499 21.5235 23.2199 17.8851C21.8045 18.6155 19.7662 19.2639 17.1813 19.2639C14.4569 19.2639 11.6547 18.4749 9.52513 16.9132C7.38746 15.3456 5.92877 12.9976 5.92877 9.91657C5.92877 7.43885 7.04105 5.51362 8.41284 4.12343C9.2065 3.3267 10.2946 2.57059 11.1884 2.06613Z" fill="#3164FA"/>
<path d="M28.7216 7.70402C28.6356 7.30184 28.5256 6.92151 28.4006 6.57585C30.1064 7.85552 31.4349 9.60189 31.3242 12.0352C31.1648 15.5399 29.0559 16.9188 27.7057 17.1487C28.3538 16.057 27.8137 15.3676 27.5977 15.1377C27.4926 15.0259 27.2756 14.8376 26.9031 14.7201C27.0874 14.5173 27.2862 14.2715 27.4837 13.9882C27.9755 13.2826 28.4788 12.317 28.7446 11.1429C29.0123 9.96075 28.944 8.74433 28.7216 7.70402Z" fill="#3164FA"/>
<path d="M91.8612 8.21036C94.1951 8.21036 95.6611 8.87274 97.0499 10.0611L95.5454 11.8729C94.5038 10.9768 93.4621 10.4313 91.7647 10.4313C89.2957 10.4313 87.3862 12.6132 87.3862 15.2238L87.3873 15.3861C87.4402 18.1284 89.2592 20.1332 91.9769 20.1332C93.2693 20.1332 94.4073 19.7241 95.2367 19.1007V16.5681L97.5321 14.464V20.1917C96.1819 21.3411 94.2916 22.3152 91.8998 22.3152C87.6755 22.3152 84.8979 19.276 84.8979 15.3017L84.8989 15.1385C84.9605 11.3744 87.8164 8.21036 91.8612 8.21036ZM107.137 8.21036C111.284 8.21036 114.178 11.3859 114.178 15.2238L114.177 15.3857C114.114 19.1504 111.201 22.3152 107.099 22.3152C102.951 22.3152 100.058 19.1397 100.058 15.3017L100.059 15.1398C100.121 11.3752 103.035 8.21036 107.137 8.21036ZM47.3414 8.34673L53.2824 22.0814L50.8672 22.0813L46.2034 11.2106L41.5735 22.0813L39.2015 22.0814L45.1425 8.34673H47.3414ZM77.9414 8.34673L83.8824 22.0814L81.4673 22.0813L76.8034 11.2106L72.1736 22.0813L69.8015 22.0814L75.7425 8.34673H77.9414ZM118.937 8.44414L126.17 17.8733V8.44414H128.504V22.0814H126.517L119.072 12.3795V22.0814H116.738V8.44414H118.937ZM107.099 10.4313C104.417 10.4313 102.546 12.5743 102.546 15.2238L102.548 15.3794C102.602 17.976 104.476 20.0943 107.137 20.0943C109.818 20.0943 111.689 17.9513 111.689 15.3017L111.688 15.1462C111.634 12.5495 109.759 10.4313 107.099 10.4313Z" fill="#3164FA"/>
<path d="M62.174 8.21036C63.8747 8.21036 65.2082 8.72524 66.0779 9.59657C66.793 10.3689 67.1988 11.3788 67.1988 12.5868L67.1983 12.7004C67.1704 14.8843 65.9025 16.2167 64.1121 16.7873L63.9906 16.8246L67.6433 22.0724H64.8217L61.4976 17.2405L59.7527 17.2401L60.9771 15.0815L62 15.082C63.6621 15.082 64.7335 14.2309 64.7814 12.8614L64.783 12.765L64.7826 12.6726C64.7588 11.2019 63.7378 10.4283 61.9807 10.4283H58.5213L58.5209 14.7134L58.5191 14.7131V17.8045L58.5209 17.8034L58.5213 22.0724H56.1442V8.21036H62.174Z" fill="#3164FA"/>
<path fill-rule="evenodd" clip-rule="evenodd" d="M137.858 8.4834L132.115 22.0785H167.948L173.69 8.4834H137.858ZM139.579 20.0569H141.436L144.704 12.4237H144.779L147.798 20.0569H149.655L145.815 10.4544H143.668L139.579 20.0569ZM150.372 10.4544V20.0569H152.111V11.9079H153.706C154.14 11.9079 154.495 11.9814 154.77 12.1283C155.048 12.2721 155.253 12.4737 155.384 12.7331C155.519 12.9926 155.586 13.2927 155.586 13.6334C155.586 13.9741 155.519 14.2757 155.384 14.5383C155.253 14.8009 155.05 15.0072 154.775 15.1572C154.5 15.3072 154.012 15.3823 153.581 15.3823L152.708 16.8123H153.949C154.69 16.8123 155.314 16.6763 155.82 16.4044C156.327 16.1293 156.71 15.7527 156.969 15.2744C157.228 14.7962 157.358 14.2492 157.358 13.6334C157.358 13.0238 157.228 12.4799 156.969 12.0017C156.713 11.5203 156.333 11.1421 155.83 10.867C155.329 10.5919 154.711 10.4544 153.973 10.4544H150.372ZM158.425 20.0569V10.4544H162.025C162.763 10.4544 163.382 10.5919 163.882 10.867C164.385 11.1421 164.765 11.5203 165.022 12.0017C165.281 12.4799 165.411 13.0238 165.411 13.6334C165.411 14.2492 165.281 14.7962 165.022 15.2744C164.762 15.7527 164.379 16.1293 163.873 16.4044C163.366 16.6763 162.743 16.8123 162.002 16.8123H160.761L161.633 15.3823C162.065 15.3823 162.552 15.3072 162.827 15.1572C163.102 15.0072 163.305 14.8009 163.437 14.5383C163.571 14.2757 163.638 13.9741 163.638 13.6334C163.638 13.2927 163.571 12.9926 163.437 12.7331C163.305 12.4737 163.101 12.2721 162.823 12.1283C162.547 11.9814 162.193 11.9079 161.758 11.9079H160.164V20.0569H158.425Z" fill="#3164FA"/>
</svg>
