<?xml version="1.0" standalone="no"?>
<!DOCTYPE svg PUBLIC "-//W3C//DTD SVG 20010904//EN"
 "http://www.w3.org/TR/2001/REC-SVG-20010904/DTD/svg10.dtd">
<svg version="1.0" xmlns="http://www.w3.org/2000/svg"
 width="700.000000pt" height="700.000000pt" viewBox="0 0 700.000000 700.000000"
 preserveAspectRatio="xMidYMid meet">
<metadata>
Created by potrace 1.14, written by Peter Selinger 2001-2017
</metadata>
<g transform="translate(0.000000,700.000000) scale(0.100000,-0.100000)"
fill="#000000" stroke="none">
<path d="M2565 6993 c-16 -2 -46 -6 -65 -9 l-34 -6 33 -29 c19 -16 88 -80 155
-142 66 -61 138 -128 159 -147 21 -19 52 -48 69 -65 l30 -30 -24 -6 c-12 -4
-38 -7 -56 -8 -53 -2 -298 -130 -468 -246 -35 -24 -177 -128 -184 -135 -3 -3
-39 -34 -80 -69 -154 -133 -301 -302 -397 -456 -70 -111 -151 -302 -182 -426
-38 -153 -46 -219 -46 -394 0 -152 8 -242 32 -350 8 -38 16 -80 19 -92 9 -46
67 -202 108 -289 48 -101 94 -176 172 -280 391 -522 1159 -858 1959 -858 106
1 355 13 364 18 3 2 31 7 62 10 31 4 66 8 77 11 11 2 35 6 53 9 224 38 473
121 689 230 69 34 109 61 117 77 20 41 53 118 53 125 0 19 99 150 146 193 91
83 236 156 327 163 45 4 216 187 278 298 8 14 19 32 26 40 29 38 118 232 149
327 56 172 73 290 70 493 -3 142 -8 198 -29 301 -49 234 -149 475 -209 500
-20 8 -28 19 -29 38 -1 84 -9 198 -13 217 -5 18 -92 81 -211 151 -11 6 -56 33
-100 59 -126 75 -486 254 -646 322 -184 77 -426 168 -514 192 -16 5 -93 27
-169 49 -77 23 -153 44 -169 47 -17 3 -33 7 -37 9 -7 4 -252 59 -305 69 -16 2
-41 7 -55 10 -13 3 -42 8 -65 11 -22 3 -47 8 -55 10 -16 4 -219 30 -310 40
-30 3 -71 8 -90 11 -41 5 -561 12 -605 7z m1900 -878 c102 -9 162 -16 217 -26
117 -19 164 -28 218 -40 25 -6 53 -12 63 -14 30 -7 188 -55 267 -82 140 -49
376 -160 445 -211 l20 -14 -20 7 c-46 16 -284 74 -327 79 -26 4 -54 9 -61 12
-8 3 -40 -20 -73 -51 -32 -30 -89 -76 -126 -100 l-66 -45 -123 35 c-190 55
-364 134 -502 227 -80 55 -187 148 -227 198 l-33 42 139 -6 c76 -3 162 -8 189
-11z"/>
<path d="M2187 6479 c-299 -92 -551 -211 -807 -382 -113 -75 -203 -143 -260
-194 -19 -17 -48 -42 -65 -55 -32 -25 -207 -199 -266 -263 -352 -393 -628
-945 -725 -1450 -2 -11 -6 -31 -9 -45 -14 -71 -34 -212 -42 -300 -10 -109 -10
-502 0 -600 14 -130 28 -221 53 -350 265 -1328 1318 -2406 2674 -2735 111 -27
301 -62 385 -71 28 -3 56 -7 63 -9 78 -26 730 -25 857 0 11 2 40 7 65 10 162
19 428 80 610 139 906 292 1693 945 2208 1831 39 66 69 121 68 122 -1 2 -36
-4 -77 -11 -477 -90 -954 -22 -1318 186 -153 87 -272 195 -361 326 -45 67
-103 196 -114 256 -3 14 -7 34 -10 44 -3 9 -8 39 -11 66 -3 27 -7 51 -9 53 -2
2 -34 -10 -72 -28 -183 -83 -419 -161 -589 -194 -22 -5 -44 -9 -50 -11 -5 -1
-28 -5 -50 -8 -23 -4 -50 -8 -60 -10 -32 -6 -128 -19 -155 -21 -182 -15 -245
-18 -358 -17 -183 1 -351 15 -477 38 -10 2 -37 6 -60 10 -243 35 -554 137
-806 264 -239 120 -415 246 -600 430 -121 120 -155 163 -256 315 -217 328
-322 777 -280 1205 7 64 18 130 43 240 15 70 81 246 124 335 112 227 288 454
490 629 62 54 251 193 333 246 37 23 67 44 67 46 0 8 -30 1 -153 -37z"/>
<path d="M6291 5490 c5 -16 14 -45 19 -62 9 -28 34 -157 55 -278 14 -76 13
-357 -1 -455 -18 -129 -29 -176 -74 -310 -65 -194 -173 -393 -296 -547 l-54
-66 43 -25 c58 -35 98 -76 132 -139 27 -48 30 -62 30 -143 0 -77 -4 -98 -28
-149 -15 -32 -25 -61 -23 -64 3 -2 35 6 73 18 306 97 531 340 643 694 46 147
64 272 64 446 1 152 -2 184 -22 286 -43 206 -188 465 -363 644 -66 68 -192
180 -202 180 -3 0 -1 -13 4 -30z"/>
</g>
</svg>
