<svg width="161" height="160" viewBox="0 0 161 160" fill="none" xmlns="http://www.w3.org/2000/svg">
<path fill-rule="evenodd" clip-rule="evenodd" d="M105.485 89.6224C103.24 89.6224 101.421 91.442 101.421 93.6867C101.421 95.9314 103.24 97.7511 105.485 97.7511C107.73 97.7511 109.549 95.9314 109.549 93.6867C109.549 91.442 107.73 89.6224 105.485 89.6224ZM103.021 93.6867C103.021 92.3257 104.124 91.2224 105.485 91.2224C106.846 91.2224 107.949 92.3257 107.949 93.6867C107.949 95.0477 106.846 96.1511 105.485 96.1511C104.124 96.1511 103.021 95.0477 103.021 93.6867Z" fill="#001F5C"/>
<path fill-rule="evenodd" clip-rule="evenodd" d="M46.6597 72.2608H83.7636C85.3323 75.1179 88.3696 77.0546 91.8592 77.0546C95.3487 77.0546 98.386 75.1179 99.9547 72.2608H110.04C112.348 72.2608 114.22 74.1323 114.22 76.4408V84.5247H105.512C100.57 84.5247 96.5636 88.5312 96.5636 93.4736C96.5636 98.4159 100.57 102.422 105.512 102.422H117.53C119.086 102.422 120.347 101.161 120.347 99.6058V87.3413C120.347 85.7858 119.086 84.5247 117.53 84.5247H115.82V76.4408C115.82 73.6789 113.882 71.3694 111.292 70.7971V65.0483C111.292 62.3974 109.143 60.2483 106.492 60.2483H101.798C101.356 60.2483 100.998 60.6065 100.998 61.0483C100.998 61.4902 101.356 61.8483 101.798 61.8483H106.492C108.26 61.8483 109.692 63.281 109.692 65.0483V70.6608H100.645C100.933 69.7674 101.088 68.8146 101.088 67.8254C101.088 62.7282 96.9563 58.5962 91.8592 58.5962C86.762 58.5962 82.63 62.7282 82.63 67.8254C82.63 68.8146 82.7856 69.7674 83.0737 70.6608H46.6597C44.2262 70.6608 42.2534 68.688 42.2534 66.2546C42.2534 63.8211 44.2262 61.8483 46.6597 61.8483H54.9423C55.3841 61.8483 55.7423 61.4902 55.7423 61.0483C55.7423 60.6065 55.3841 60.2483 54.9423 60.2483H46.6597C43.7011 60.2483 41.2421 62.3875 40.7451 65.2035C40.6866 65.3147 40.6534 65.4413 40.6534 65.5757V107C40.6534 112.965 45.4888 117.8 51.4534 117.8H108.02C112.327 117.8 115.82 114.308 115.82 110V104.735C115.82 104.294 115.461 103.935 115.02 103.935C114.578 103.935 114.22 104.294 114.22 104.735V110C114.22 113.424 111.444 116.2 108.02 116.2H51.4534C46.3724 116.2 42.2534 112.081 42.2534 107V70.3362C43.3505 71.5199 44.9185 72.2608 46.6597 72.2608ZM84.23 67.8254C84.23 68.8274 84.4231 69.7842 84.7742 70.6608H98.9441C99.2952 69.7842 99.4883 68.8274 99.4883 67.8254C99.4883 63.6119 96.0726 60.1962 91.8592 60.1962C87.6457 60.1962 84.23 63.6119 84.23 67.8254ZM91.8592 75.4546C94.4184 75.4546 96.6833 74.1944 98.0673 72.2608H85.651C87.035 74.1944 89.2999 75.4546 91.8592 75.4546ZM98.1636 93.4736C98.1636 89.4149 101.454 86.1247 105.512 86.1247H117.53C118.202 86.1247 118.747 86.6694 118.747 87.3413V99.6058C118.747 100.278 118.202 100.822 117.53 100.822H105.512C101.454 100.822 98.1636 97.5322 98.1636 93.4736Z" fill="#001F5C"/>
<rect x="57.0721" y="43" width="26.2677" height="26.2677" rx="13.1339" fill="#3164FA"/>
</svg>
